<?xml version="1.0" standalone="yes"?><svg xmlns="http://www.w3.org/2000/svg" width="1770" height="726"><path style="fill:transparent; stroke:none;" d="M0 0L0 726L1770 726L1770 0L0 0z"/><path style="fill:#f0f0f0; stroke:none;" d="M1 539C3.59909 532.806 2 523.686 2 517L2 470C2 463.836 0.317783 454.668 3.01312 449C4.96575 444.894 8.80037 441.417 11.7292 438C17.7443 430.982 23.738 423.938 29.8449 417C48.7254 395.552 67.7195 374.235 86.831 353C130.704 304.253 176.594 257.291 224 211.961C254.982 182.335 286.51 153.033 320 126.2C353.721 99.1809 387.884 72.8692 425 50.6003C433.56 45.4647 442.17 40.4394 451 35.7809C455.482 33.4161 459.801 30.6965 465 32.0587C488.141 38.1222 510.566 50.2809 531 62.3966C585.053 94.445 631.51 138.939 672.715 186C692.326 208.397 710.807 231.616 729.211 255C733.902 260.96 738.51 266.974 743.116 273C744.983 275.444 747.016 279.298 750.174 280.223C753.995 281.343 759.401 278.63 763 277.508C770.897 275.046 779.043 273.284 787 271C815.83 262.727 845.016 255.933 874 248.265C881.983 246.154 889.974 244.079 898 242.13C901.559 241.265 906.367 239.464 910 240.643C914.368 242.06 917.863 246.863 921 250L942 271C966.844 295.844 992.17 320.172 1017 345C1024.84 352.839 1033.11 360.202 1041 367.996C1044.15 371.106 1048.39 376.297 1053 377.083C1056.84 377.736 1061.59 374.749 1065 373.281C1073.27 369.714 1081.64 366.346 1090 363C1123.37 349.65 1157.26 336.589 1190 321.77C1200.79 316.887 1212.08 313.005 1223 308.424C1226.08 307.132 1232.09 303.376 1235.48 304.556C1238.01 305.434 1239.69 308.966 1241.14 311C1245.17 316.622 1249.16 322.247 1253 328C1267.21 349.306 1282.9 369.669 1297 391C1303.91 388.133 1309.82 383.144 1316 379.001C1328.02 370.946 1340.01 362.85 1352 354.745C1385.55 332.061 1419.63 309.987 1454 288.576C1467.6 280.107 1481.14 271.466 1495 263.424C1499.78 260.648 1506.35 255.001 1512 254.722C1516.59 254.496 1521.9 257.948 1526 259.719C1536.82 264.389 1547.46 269.472 1558 274.753C1601.95 296.783 1643.04 324.807 1683 353.291C1694.15 361.236 1705.23 369.346 1716 377.79C1720.31 381.172 1726.53 387.945 1732 389.037C1735.78 389.792 1739.28 386.312 1742 384.207C1749.87 378.117 1761.39 372.584 1767.4 364.561C1769.76 361.401 1769 356.714 1769 353L1769 328L1769 229L1769 201C1769 197.852 1770.04 192.253 1767.97 189.6C1765.81 186.815 1759.21 186.952 1756 186.414C1744.75 184.527 1733.35 183.25 1722 182.17C1709 180.933 1695.05 179.923 1682 181.17C1642.85 184.91 1605.68 202.906 1571 220.247C1557.5 226.996 1544.23 234.041 1531 241.306C1525.23 244.477 1518.5 250.225 1512 251.547C1505.92 252.783 1496.87 247.53 1491 245.86C1477.15 241.917 1463.32 239.532 1449 238.17C1438.24 237.146 1426.53 239.297 1416 241.4C1398.72 244.85 1381.86 249.641 1365 254.72C1334.56 263.89 1304.63 275.334 1275 286.811C1266.66 290.042 1258.31 293.302 1250 296.601C1246.57 297.961 1241.8 300.973 1238.01 300.611C1233.54 300.183 1230.55 294.188 1228.12 291C1220.97 281.63 1213.28 272.385 1205 264C1182.01 240.742 1154.24 222.545 1122 215.424C1073.68 204.752 1023.7 214.661 976 224.2C960.288 227.342 944.66 230.825 929 234.21C923.813 235.331 916.217 238.978 911 237.103C903.019 234.234 895.863 223.863 890 218C874.89 202.89 859.842 187.504 844 173.17C787.818 122.335 732.231 68.6736 665 32.3087C621.002 8.51038 573.865 -5.93396 524 5.88428C509.662 9.28247 495.555 14.0762 482 19.8503C475.567 22.5909 467.455 28.4589 460.424 28.8757C456.984 29.0797 453.29 27.2981 450 26.4753C443.394 24.8232 436.716 23.2151 430 22.0811C408.658 18.4775 386.664 16.6059 365 18.0895C280.763 23.8582 200.377 62.1744 129 105C96.7876 124.327 65.5831 145.193 35 167C26.9245 172.758 18.9346 178.676 11 184.627C7.89615 186.954 3.15152 189.424 1.6034 193.174C0.409569 196.065 1 199.941 1 203L1 223L1 294L1 539z"/><path style="fill:#e0e0e0; stroke:none;" d="M2 516C23.3611 511.058 44.1826 501.873 65 495.001C107.348 481.021 149.685 467.102 192 453C305.754 415.089 420.228 379.006 535 344.431C585.942 329.085 636.676 312.913 688 298.848C701.377 295.182 714.668 291.119 728 287.291C733.726 285.647 740.985 282.377 746.961 282.448C751.225 282.499 753.605 286.977 755.873 290C761.834 297.944 767.761 305.948 773.576 314C797.445 347.056 820.639 380.909 845.79 413C852.508 421.572 858.878 430.411 865.576 439C868.233 442.407 871.014 447.578 876.001 447.092C881.006 446.603 886.323 443.693 891 441.95C901.021 438.214 911.058 434.546 921 430.601C949.272 419.383 977.794 408.787 1006 397.396C1016.34 393.219 1026.64 388.943 1037 384.8C1040.98 383.207 1046.66 379.542 1051 379.708C1054.7 379.848 1057.47 383.559 1060 385.831C1066.35 391.529 1072.76 397.161 1079 402.975C1100.04 422.583 1122.37 441.044 1145 458.79C1150.6 463.182 1156.2 467.586 1162 471.709C1164.29 473.336 1167.01 475.955 1170 475.977C1172.58 475.996 1174.96 474.011 1177 472.666L1192 462.667C1210.4 450.46 1228.74 438.154 1247 425.745C1259.27 417.406 1271.78 409.391 1284 400.975C1287.09 398.844 1295.48 394.881 1296.08 390.816C1296.62 387.189 1291.65 382.699 1289.71 380C1282.59 370.063 1275.45 360.175 1268.67 350C1261.06 338.593 1253.39 327.154 1245.42 316C1243.01 312.626 1239.9 305.868 1235.82 304.356C1232.78 303.232 1228.75 305.697 1226 306.8C1218.32 309.88 1210.61 312.908 1203 316.15C1173.83 328.57 1144.15 339.805 1115 352.28C1100.77 358.37 1086.31 363.948 1072 369.861C1066.94 371.953 1059.59 377.01 1054 376.626C1050.1 376.357 1046.64 372.485 1044 369.961C1010.93 338.37 978.345 306.345 946 274L921 249C917.658 245.659 914.032 240.748 909 240.188C904.811 239.721 900.027 241.38 896 242.374C887.98 244.353 880.005 246.498 872 248.525C844.604 255.462 817.325 262.667 790 269.884C780.692 272.343 771.185 274.644 762 277.508C758.39 278.633 752.931 281.444 749.3 279.223C742.808 275.253 737.881 264.933 733.196 259C720.255 242.613 707.356 226.216 694.196 210C648.437 153.615 594.789 99.625 532 62.3966C517.131 53.5807 501.873 46.11 486 39.2809C479.082 36.3045 469.609 31.4655 462 31.2893C457.154 31.1771 452.095 34.5911 448 36.8611C439.585 41.5258 431.253 46.248 423 51.1998C388.516 71.8898 356.176 96.0538 325 121.389C239.275 191.053 160.655 269.975 86.831 352C67.422 373.565 48.2141 395.298 28.9498 417C22.8208 423.905 16.8939 431.003 10.8696 438C8.02819 441.3 4.09247 444.816 2.59954 449C0.462274 454.99 2 463.69 2 470L2 516M1298 391C1305.26 401.975 1314.73 411.726 1324 421C1344.19 441.188 1367.65 457.898 1394 469.128C1440.81 489.081 1495.18 490.645 1545 484.285L1577 480.184C1583.36 479.392 1590.98 479.268 1597 477.006C1608.81 472.573 1620.15 464.385 1631 458.011C1652.37 445.46 1673.8 432.52 1694 418.141C1703.25 411.552 1712.75 405.307 1722 398.709C1724.9 396.639 1729.19 392.124 1733 392.302C1736.86 392.483 1741.11 397.169 1744 399.424C1752.31 405.908 1760.21 413.187 1769 419L1769 364C1760.15 368.52 1751.97 375.919 1744 381.895C1741.03 384.121 1737.02 388.688 1733 388.559C1727.81 388.391 1720.93 380.87 1717 377.79C1704.31 367.844 1691.26 358.205 1678 349.025C1642.51 324.45 1606.77 301.074 1569 280.139C1558.22 274.162 1547.06 269.155 1536 263.755C1529.37 260.521 1521.3 255.824 1514 254.573C1507.94 253.534 1501.95 258.9 1497 261.719C1483.46 269.438 1470.21 277.781 1457 286.05C1423.97 306.724 1391.62 328.359 1359 349.656C1338.73 362.887 1316.65 375.562 1298 391z"/><path style="fill:#d2d2d2; stroke:none;" d="M2 539C124.425 539 246.732 536.01 369 533.015C418.404 531.804 467.671 530.199 517 528.039C545.362 526.797 573.783 527.19 602 523.714C663.661 516.117 725.125 498.727 784 479.329C804.727 472.5 825.318 465.294 846 458.333C853.281 455.882 863.254 449.535 870.999 449.836C876.071 450.033 879.566 456.513 882.424 460C890.522 469.878 898.783 479.596 907.325 489.09C931.935 516.44 963.655 547.495 1001 555.396C1020.85 559.595 1039.28 552.289 1057 543.778C1081.85 531.841 1105.69 518.01 1129 503.319C1138 497.647 1147.15 492.236 1156 486.333C1159.56 483.959 1164.57 479.094 1169 478.813C1173.5 478.528 1178.56 483.876 1182 486.28C1191.77 493.107 1201.81 499.613 1212 505.797C1242.95 524.583 1276.4 540.382 1312 547.714C1331.62 551.755 1351.2 550.906 1371 550.039C1426.41 547.613 1481.34 530.933 1532 508.716C1552.94 499.532 1572.97 487.757 1594 479C1589.87 477.282 1586.21 478.987 1582 479.675C1574.03 480.977 1566.01 481.678 1558 482.718C1532.27 486.061 1506.99 487.622 1481 486.985C1432.94 485.808 1385.05 470.752 1347 440.789C1328.39 426.134 1313.91 408.286 1298 391C1286.89 397.184 1276.55 405.223 1266 412.33C1245.35 426.243 1224.53 439.939 1204 454.025C1196.08 459.46 1188 464.669 1180 470C1177.02 471.987 1172.88 475.96 1169 475.187C1166.09 474.607 1163.34 471.97 1161 470.29C1154.85 465.881 1148.97 461.077 1143 456.424C1121.68 439.807 1100.89 422.209 1081 403.914C1074.38 397.829 1067.69 391.837 1061 385.831C1057.86 383.012 1054.7 378.859 1050 379.448C1045.34 380.034 1040.35 383.061 1036 384.8C1025.98 388.81 1015.98 392.882 1006 396.989C977.539 408.698 948.602 419.252 920 430.601C908.736 435.07 897.338 439.148 886 443.424C882.341 444.803 876.944 447.972 873.039 446.071C869.51 444.353 867.133 439.987 864.79 437C858.592 429.096 852.743 420.928 846.576 413C823.268 383.037 801.944 351.518 779.371 321C772.49 311.697 765.668 302.348 758.849 293C756.388 289.627 753.225 283.369 748.826 282.357C745.385 281.566 741.26 283.365 738 284.29L716 290.573C688.616 298.38 661.22 306.077 634 314.434C536.971 344.226 439.935 373.857 343 403.975C255.607 431.127 169.026 460.928 82 489.164C62.2963 495.557 42.4549 501.844 23 508.947C17.8443 510.829 6.4131 512.188 3.02778 516.702C1.57245 518.643 2.00468 521.732 2 524L2 539M1600 475C1604.43 476.361 1609.54 474.295 1614 473.46C1625.75 471.261 1637.45 468.595 1649 465.424C1673.4 458.722 1697.81 452.549 1722 445.115C1737.62 440.315 1753.11 433.764 1769 430C1769 426.526 1769.64 422.221 1767.97 419.039C1766.29 415.817 1762.77 413.614 1760 411.4C1755.01 407.401 1750.04 403.36 1745 399.424C1741.46 396.662 1735.97 390.48 1731 392.046C1726.06 393.603 1721.18 398.589 1717 401.579C1707.45 408.408 1697.76 415.123 1688 421.645C1659.39 440.756 1629.68 457.677 1600 475z"/><path style="fill:#c5c5c5; stroke:none;" d="M2 539L2 724L1769 724L1769 430C1759.26 431.458 1749.36 435.91 1740 438.999C1723.77 444.356 1707.38 449.369 1691 454.23C1667.98 461.061 1644.35 466.515 1621 472.101C1613.15 473.979 1604.6 474.124 1597 476.951C1588.96 479.942 1581.66 484.944 1574 488.752C1557.29 497.057 1540.24 505.01 1523 512.139C1471.01 533.632 1418.01 547.075 1362 550.911C1315.6 554.088 1269.93 538.085 1230 515.576C1215.28 507.277 1201.04 498.405 1187 488.999C1182.3 485.85 1174.99 478.07 1169 478.422C1164.42 478.691 1159.66 483.225 1156 485.667C1147.14 491.574 1138.01 497.007 1129 502.681C1105.35 517.582 1081.21 531.666 1056 543.778C1042.65 550.193 1027.18 557.447 1012 556.957C1001.19 556.608 990.701 552.216 981 547.857C952.155 534.898 928.522 511.052 907.325 488.17C898.645 478.8 890.52 468.875 882.424 459C879.509 455.444 876.233 449.415 870.999 449.474C862.636 449.567 852.861 455.687 845 458.333C824.318 465.294 803.727 472.5 783 479.329C724.125 498.727 662.661 516.117 601 523.714C572.783 527.19 544.363 526.797 516 528.039C466.671 530.199 417.404 531.804 368 533.015C246.065 536.002 124.09 539 2 539z"/><path style="fill:#dcdcdc; stroke:none;" d="M1 539L1 725C2.98056 720.28 2 714.08 2 709L2 678L2 581L2 553C2 548.464 2.76875 543.215 1 539z"/><path style="fill:#cccccc; stroke:none;" d="M2 724C6.46874 725.875 12.1913 725 17 725L47 725L151 725L513 725L1769 725C1764.53 723.125 1758.81 724 1754 724L1724 724L1620 724L1258 724L2 724z"/></svg>